<?xml version="1.0" encoding="UTF-8" standalone="no"?>
<!DOCTYPE svg PUBLIC "-//W3C//DTD SVG 1.1//EN" "http://www.w3.org/Graphics/SVG/1.1/DTD/svg11.dtd">
<svg version="1.1" xmlns="http://www.w3.org/2000/svg" xmlns:xlink="http://www.w3.org/1999/xlink" preserveAspectRatio="xMidYMid meet" viewBox="0 0 640 640" width="640" height="640"><defs><path d="M286.33 230.6C286.33 231.32 286.28 232.03 286.24 232.74C286.51 232.78 288.69 233.11 288.96 233.15C290.15 230.94 291.82 229.04 293.88 227.58C293.27 225.67 290.26 216.13 284.84 198.96L279.05 203.05C283.9 215.01 286.33 224.2 286.33 230.6Z" id="i44LfOha"></path><path d="M226.54 225.35C230.09 222.84 258.5 202.76 262.05 200.25C253.69 191.44 242.1 186.42 230.04 186.42C205.68 186.42 185.86 206.24 185.86 230.6C185.86 254.96 205.68 274.79 230.04 274.79C249.74 274.79 266.97 261.73 272.43 242.88C268.1 242.22 233.46 236.93 229.13 236.27C226.67 235.9 224.72 234.1 224.15 231.68C223.58 229.26 224.52 226.78 226.54 225.35Z" id="e60OXgieVp"></path><path d="M274.22 230.91C274.22 230.8 274.22 230.7 274.22 230.6C274.22 223.47 272.46 216.41 269.12 210.07C267.56 211.17 259.78 216.67 245.79 226.57C262.84 229.17 272.32 230.62 274.22 230.91Z" id="gGOu7lzN1"></path><path d="M299.15 240.73C299.15 242.98 300.97 244.81 303.23 244.81C305.48 244.81 307.31 242.98 307.31 240.73C307.31 239.71 306.91 238.72 306.19 237.95C305.32 237.08 304.3 236.65 303.23 236.65C300.98 236.65 299.15 238.48 299.15 240.73Z" id="brKgMk8uD"></path><path d="M399.36 192.98C400.98 197.04 413.95 229.53 415.58 233.59C416.17 235.1 416.15 236.74 415.52 238.23C414.88 239.71 413.7 240.86 412.2 241.46C411.49 241.75 410.74 241.89 409.96 241.89C407.46 241.89 405.26 240.39 404.34 238.09C402.71 234.02 389.74 201.53 388.12 197.47C374.3 205.35 365.78 219.92 365.78 235.84C365.78 260.2 385.6 280.02 409.96 280.02C434.32 280.02 454.14 260.2 454.14 235.84C454.14 211.48 434.32 191.66 409.96 191.66C406.45 191.66 402.89 192.1 399.36 192.98Z" id="b376E5xYk"></path><path d="M335.47 26.23L343.08 27L350.59 28.08L358.02 29.44L365.33 31.1L372.54 33.03L379.63 35.25L386.6 37.73L393.45 40.47L400.16 43.47L406.72 46.71L413.15 50.21L419.42 53.94L425.53 57.9L431.47 62.09L437.25 66.5L442.85 71.12L448.26 75.95L453.49 80.99L458.52 86.21L463.35 91.63L467.98 97.23L472.38 103L476.57 108.95L480.54 115.06L484.27 121.33L487.76 127.75L491.01 134.32L494.01 141.03L496.75 147.87L499.23 154.84L501.44 161.94L503.38 169.14L505.03 176.46L506.4 183.88L507.47 191.4L508.25 199.01L508.72 206.7L508.88 214.48L508.54 224.13L507.55 233.82L505.95 243.52L503.76 253.23L501.03 262.93L497.78 272.6L494.05 282.23L489.87 291.81L485.29 301.32L480.32 310.75L475.01 320.08L469.39 329.3L463.49 338.4L457.36 347.36L451.01 356.16L444.49 364.8L437.83 373.26L431.07 381.52L424.23 389.57L417.36 397.4L410.48 404.98L403.63 412.32L396.85 419.39L390.17 426.18L383.62 432.67L377.23 438.85L371.05 444.71L365.1 450.23L359.42 455.4L354.05 460.21L349.01 464.63L344.34 468.66L340.08 472.28L336.26 475.47L332.91 478.23L330.07 480.54L327.77 482.38L326.04 483.74L324.93 484.61L324.45 484.97L324.35 485.04L324.25 485.11L324.15 485.18L324.05 485.24L323.95 485.31L323.84 485.37L323.74 485.43L323.63 485.49L323.53 485.55L323.42 485.6L323.31 485.65L323.21 485.71L323.1 485.75L322.99 485.8L322.88 485.85L322.77 485.89L322.66 485.93L322.55 485.97L322.44 486.01L322.32 486.05L322.21 486.08L322.1 486.12L321.98 486.15L321.87 486.18L321.76 486.2L321.64 486.23L321.53 486.25L321.41 486.27L321.29 486.29L321.18 486.31L321.06 486.33L320.94 486.34L320.83 486.36L320.71 486.37L320.59 486.38L320.47 486.39L320.36 486.39L320.24 486.4L320.12 486.4L320 486.4L319.88 486.4L319.75 486.4L319.63 486.39L319.51 486.38L319.38 486.38L319.26 486.37L319.14 486.35L319.01 486.34L318.89 486.32L318.77 486.3L318.64 486.28L318.52 486.26L318.4 486.24L318.28 486.21L318.15 486.18L318.03 486.15L317.91 486.12L317.79 486.08L317.67 486.05L317.55 486.01L317.43 485.97L317.31 485.93L317.19 485.88L317.07 485.84L316.96 485.79L316.84 485.74L316.72 485.68L316.61 485.63L316.49 485.57L316.38 485.51L316.27 485.45L316.15 485.39L316.04 485.33L315.93 485.26L315.82 485.19L315.71 485.12L315.61 485.05L315.5 484.97L315.39 484.89L315.29 484.81L314.41 484.13L312.94 482.97L310.89 481.35L308.3 479.26L305.22 476.74L301.65 473.79L297.65 470.43L293.25 466.66L288.46 462.51L283.34 457.98L277.9 453.09L272.19 447.86L266.23 442.29L260.06 436.4L253.71 430.2L247.21 423.71L240.6 416.94L233.9 409.9L227.15 402.61L220.38 395.07L213.63 387.31L206.93 379.34L200.3 371.16L193.78 362.8L187.41 354.26L181.21 345.57L175.23 336.73L169.48 327.75L164.01 318.65L158.84 309.45L154.01 300.15L149.55 290.78L145.5 281.33L141.88 271.83L138.73 262.3L136.08 252.73L133.96 243.16L132.4 233.58L131.45 224.01L131.12 214.48L131.28 206.7L131.75 199.01L132.53 191.4L133.6 183.88L134.97 176.46L136.62 169.14L138.56 161.94L140.77 154.84L143.25 147.87L145.99 141.03L148.99 134.32L152.24 127.75L155.73 121.33L159.46 115.06L163.43 108.95L167.62 103L172.02 97.23L176.65 91.63L181.48 86.21L186.51 80.99L191.74 75.95L197.15 71.12L202.75 66.5L208.53 62.09L214.47 57.9L220.58 53.94L226.85 50.21L233.28 46.71L239.84 43.47L246.55 40.47L253.4 37.73L260.37 35.25L267.46 33.03L274.67 31.1L281.98 29.44L289.41 28.08L296.92 27L304.53 26.23L312.23 25.76L320 25.6L327.77 25.76L335.47 26.23ZM397.54 119.89L397.3 119.91L397.07 119.94L396.84 119.98L396.6 120.02L396.37 120.08L396.14 120.15L395.91 120.23L395.69 120.32L368.27 131.69L368.26 131.7L368.24 131.7L368.23 131.71L368.21 131.72L368.2 131.72L368.18 131.73L368.17 131.74L368.15 131.74L368.14 131.75L368.12 131.76L368.11 131.77L368.09 131.77L368.08 131.78L368.06 131.79L368.05 131.8L368.03 131.8L368.02 131.81L368 131.82L367.98 131.83L367.97 131.84L367.95 131.85L367.93 131.86L367.92 131.86L367.9 131.87L367.88 131.88L367.86 131.89L367.84 131.9L367.83 131.91L367.81 131.93L367.79 131.94L367.77 131.95L367.73 131.97L367.71 131.98L367.66 132.01L367.62 132.03L367.57 132.06L367.24 132.24L367.23 132.25L367.22 132.26L367.2 132.27L367.19 132.28L367.18 132.29L367.17 132.29L367.15 132.3L367.14 132.31L367.13 132.32L367.12 132.33L367.1 132.34L367.09 132.35L367.08 132.36L367.06 132.37L367.05 132.38L367.04 132.39L367.02 132.4L367.01 132.41L367 132.42L366.98 132.43L366.97 132.45L366.95 132.46L366.94 132.47L366.92 132.48L366.9 132.5L366.89 132.51L366.87 132.52L366.85 132.54L366.83 132.55L366.82 132.57L366.8 132.58L366.78 132.6L366.76 132.62L366.72 132.65L366.68 132.69L366.65 132.71L366.63 132.73L366.61 132.75L366.3 133.01L366.29 133.02L366.28 133.03L366.27 133.04L366.26 133.05L366.25 133.06L366.23 133.08L366.22 133.09L366.21 133.1L366.2 133.11L366.2 133.12L366.19 133.13L366.18 133.15L366.17 133.16L366.16 133.17L366.15 133.18L366.14 133.19L366.12 133.2L366.11 133.22L366.1 133.23L366.09 133.24L366.08 133.26L366.06 133.28L366.05 133.3L366.02 133.33L366 133.36L365.97 133.4L365.94 133.43L365.91 133.47L365.89 133.49L365.86 133.53L365.85 133.55L365.83 133.57L365.57 133.9L365.56 133.91L365.55 133.92L365.55 133.93L365.54 133.95L365.53 133.96L365.53 133.97L365.52 133.98L365.51 133.99L365.5 134L365.5 134.01L365.49 134.02L365.48 134.04L365.48 134.05L365.47 134.06L365.46 134.07L365.45 134.09L365.44 134.1L365.43 134.13L365.42 134.14L365.41 134.16L365.4 134.17L365.4 134.19L365.39 134.21L365.38 134.22L365.37 134.24L365.36 134.26L365.34 134.3L365.33 134.32L365.32 134.34L365.31 134.36L365.28 134.4L365.27 134.43L365.25 134.48L365.2 134.55L365.01 134.94L365.01 134.95L365 134.96L365 134.97L364.99 134.98L364.98 135L364.98 135.01L364.98 135.03L364.97 135.04L364.96 135.06L364.96 135.07L364.96 135.09L364.95 135.1L364.94 135.13L364.94 135.14L364.93 135.17L364.92 135.18L364.91 135.22L364.91 135.23L364.9 135.25L364.89 135.29L364.88 135.32L364.87 135.35L364.87 135.37L364.85 135.41L364.85 135.43L364.84 135.46L364.83 135.48L364.82 135.51L364.81 135.56L364.79 135.62L364.68 136.02L364.67 136.04L364.67 136.05L364.67 136.06L364.67 136.07L364.66 136.09L364.66 136.1L364.66 136.11L364.65 136.13L364.65 136.14L364.65 136.15L364.65 136.17L364.64 136.18L364.64 136.2L364.64 136.21L364.64 136.23L364.64 136.24L364.63 136.26L364.63 136.27L364.63 136.29L364.63 136.31L364.62 136.32L364.62 136.34L364.62 136.36L364.62 136.38L364.62 136.4L364.61 136.42L364.61 136.44L364.61 136.46L364.61 136.48L364.6 136.5L364.6 136.52L364.6 136.57L364.59 136.62L364.59 136.64L364.59 136.67L364.59 136.7L364.58 136.76L364.54 137.19L364.54 137.2L364.54 137.22L364.54 137.23L364.54 137.24L364.54 137.27L364.54 137.28L364.54 137.3L364.54 137.31L364.54 137.32L364.54 137.34L364.55 137.35L364.55 137.37L364.55 137.38L364.55 137.4L364.55 137.41L364.55 137.43L364.55 137.45L364.55 137.46L364.55 137.48L364.55 137.5L364.55 137.52L364.56 137.53L364.56 137.55L364.56 137.57L364.56 137.59L364.56 137.61L364.57 137.63L364.57 137.65L364.57 137.68L364.57 137.7L364.58 137.75L364.58 137.77L364.58 137.82L364.59 137.88L364.6 137.94L364.64 138.38L364.64 138.4L364.65 138.41L364.65 138.42L364.65 138.43L364.65 138.45L364.66 138.46L364.66 138.47L364.66 138.49L364.67 138.5L364.67 138.51L364.67 138.53L364.68 138.54L364.68 138.56L364.68 138.57L364.69 138.59L364.69 138.6L364.7 138.62L364.7 138.65L364.71 138.67L364.71 138.68L364.72 138.7L364.72 138.72L364.73 138.74L364.74 138.76L364.74 138.78L364.75 138.8L364.75 138.82L364.76 138.84L364.77 138.86L364.77 138.89L364.78 138.91L364.79 138.93L364.8 138.98L364.82 139.04L364.85 139.13L367.45 145.74L303.78 171.36L288.36 169.93L277.66 136.04L294.31 136.04L294.56 136.03L294.81 136.02L295.05 135.99L295.29 135.96L295.53 135.92L295.77 135.86L296 135.8L296.22 135.73L296.45 135.65L296.67 135.56L296.88 135.47L297.09 135.36L297.3 135.25L297.5 135.13L297.69 135L297.89 134.87L298.07 134.73L298.25 134.58L298.42 134.42L298.59 134.26L298.75 134.09L298.91 133.92L299.05 133.74L299.2 133.56L299.33 133.36L299.46 133.17L299.58 132.97L299.69 132.76L299.79 132.55L299.89 132.34L299.98 132.12L300.06 131.89L300.13 131.67L300.19 131.43L300.24 131.2L300.29 130.96L300.32 130.72L300.34 130.48L300.36 130.23L300.36 129.98L300.36 129.73L300.34 129.49L300.32 129.24L300.29 129L300.24 128.76L300.19 128.53L300.13 128.3L300.06 128.07L299.98 127.85L299.89 127.63L299.79 127.41L299.69 127.2L299.58 127L299.46 126.8L299.33 126.6L299.2 126.41L299.05 126.22L298.91 126.04L298.75 125.87L298.59 125.7L298.42 125.54L298.25 125.39L298.07 125.24L297.89 125.1L297.69 124.96L297.5 124.84L297.3 124.72L297.09 124.61L296.88 124.5L296.67 124.41L296.45 124.32L296.22 124.24L296 124.17L295.77 124.11L295.53 124.05L295.29 124.01L295.05 123.97L294.81 123.95L294.56 123.93L294.31 123.93L253.94 123.93L253.69 123.93L253.45 123.95L253.2 123.97L252.96 124.01L252.72 124.05L252.49 124.11L252.26 124.17L252.03 124.24L251.81 124.32L251.59 124.41L251.37 124.5L251.16 124.61L250.96 124.72L250.76 124.84L250.56 124.96L250.37 125.1L250.18 125.24L250 125.39L249.83 125.54L249.66 125.7L249.5 125.87L249.35 126.04L249.2 126.22L249.06 126.41L248.92 126.6L248.8 126.8L248.68 127L248.57 127.2L248.46 127.41L248.37 127.63L248.28 127.85L248.2 128.07L248.13 128.3L248.07 128.53L248.01 128.76L247.97 129L247.93 129.24L247.91 129.49L247.89 129.73L247.89 129.98L247.89 130.23L247.91 130.48L247.93 130.72L247.97 130.96L248.01 131.2L248.07 131.44L248.13 131.67L248.2 131.9L248.28 132.12L248.37 132.34L248.46 132.55L248.57 132.76L248.68 132.97L248.8 133.17L248.92 133.37L249.06 133.56L249.2 133.74L249.35 133.92L249.5 134.1L249.66 134.26L249.83 134.42L250 134.58L250.18 134.73L250.37 134.87L250.56 135L250.76 135.13L250.96 135.25L251.16 135.36L251.37 135.47L251.59 135.56L251.81 135.65L252.03 135.73L252.26 135.8L252.49 135.86L252.72 135.92L252.96 135.96L253.2 135.99L253.45 136.02L253.69 136.03L253.94 136.04L264.96 136.04L281.02 186.84L272.03 193.2L271.21 192.31L270.38 191.43L269.54 190.58L268.68 189.75L267.8 188.94L266.91 188.14L266 187.37L265.08 186.62L264.15 185.89L263.2 185.18L262.24 184.49L261.26 183.82L260.27 183.17L259.27 182.55L258.26 181.94L257.24 181.36L256.2 180.8L255.15 180.26L254.1 179.74L253.03 179.25L251.95 178.78L250.86 178.33L249.77 177.9L248.66 177.5L247.55 177.12L246.42 176.77L245.29 176.43L244.16 176.12L243.01 175.84L241.86 175.58L240.7 175.34L239.54 175.13L238.37 174.94L237.19 174.77L236.01 174.63L234.82 174.52L233.63 174.43L232.44 174.37L231.24 174.33L230.04 174.32L227.72 174.36L225.43 174.5L223.16 174.73L220.92 175.05L218.71 175.46L216.53 175.95L214.38 176.53L212.27 177.19L210.19 177.93L208.15 178.75L206.15 179.64L204.2 180.61L202.28 181.65L200.41 182.76L198.59 183.94L196.82 185.19L195.1 186.5L193.43 187.88L191.82 189.32L190.26 190.82L188.76 192.38L187.32 193.99L185.94 195.66L184.63 197.38L183.38 199.15L182.2 200.97L181.09 202.84L180.04 204.75L179.08 206.71L178.18 208.71L177.37 210.75L176.63 212.83L175.97 214.94L175.39 217.09L174.9 219.27L174.49 221.48L174.17 223.72L173.94 225.99L173.8 228.28L173.75 230.6L173.8 232.92L173.94 235.21L174.17 237.48L174.49 239.72L174.9 241.93L175.39 244.11L175.97 246.26L176.63 248.37L177.37 250.45L178.18 252.49L179.08 254.49L180.04 256.45L181.09 258.36L182.2 260.23L183.38 262.05L184.63 263.82L185.94 265.54L187.32 267.21L188.76 268.83L190.26 270.38L191.82 271.88L193.43 273.32L195.1 274.7L196.82 276.01L198.59 277.26L200.41 278.44L202.28 279.56L204.2 280.6L206.15 281.56L208.15 282.46L210.19 283.28L212.27 284.01L214.38 284.67L216.53 285.25L218.71 285.74L220.92 286.15L223.16 286.47L225.43 286.7L227.72 286.84L230.04 286.89L231.97 286.86L233.88 286.76L235.78 286.6L237.66 286.38L239.52 286.1L241.36 285.75L243.18 285.35L244.98 284.89L246.76 284.37L248.52 283.8L250.25 283.17L251.95 282.48L253.63 281.74L255.28 280.95L256.9 280.11L258.49 279.21L260.04 278.27L261.57 277.27L263.06 276.23L264.51 275.14L265.93 274L267.31 272.81L268.66 271.58L269.96 270.31L271.22 269L272.44 267.64L273.62 266.24L274.76 264.8L275.84 263.32L276.88 261.8L277.88 260.25L278.82 258.66L279.72 257.03L280.56 255.37L281.35 253.67L282.09 251.94L282.77 250.18L283.4 248.39L283.97 246.57L284.48 244.72L287.7 245.21L287.77 245.45L287.85 245.69L287.93 245.92L288.01 246.16L288.1 246.39L288.19 246.63L288.28 246.86L288.37 247.09L288.47 247.32L288.58 247.54L288.68 247.77L288.79 247.99L288.91 248.21L289.02 248.43L289.14 248.65L289.27 248.86L289.4 249.08L289.53 249.29L289.66 249.5L289.8 249.71L289.93 249.91L290.08 250.11L290.22 250.32L290.37 250.51L290.53 250.71L290.68 250.91L290.84 251.1L291 251.29L291.17 251.47L291.33 251.66L291.5 251.84L291.68 252.02L291.85 252.2L292.03 252.37L292.21 252.55L292.4 252.72L292.59 252.88L292.78 253.05L292.97 253.21L293.17 253.37L290.28 263.07L290.21 263.31L290.16 263.55L290.11 263.79L290.07 264.03L290.05 264.27L290.03 264.51L290.03 264.75L290.03 264.99L290.04 265.22L290.06 265.46L290.09 265.69L290.13 265.92L290.18 266.15L290.24 266.38L290.31 266.6L290.38 266.82L290.46 267.04L290.55 267.26L290.65 267.47L290.76 267.67L290.87 267.88L291 268.07L291.13 268.27L291.26 268.45L291.41 268.64L291.56 268.81L291.72 268.99L291.88 269.15L292.05 269.31L292.23 269.47L292.42 269.61L292.61 269.75L292.81 269.89L293.01 270.01L293.22 270.13L293.44 270.24L293.66 270.34L293.88 270.44L294.12 270.52L294.35 270.6L294.59 270.66L294.82 270.71L295.06 270.76L295.29 270.79L295.53 270.81L295.77 270.82L296.01 270.83L296.24 270.82L296.48 270.81L296.71 270.78L296.94 270.75L297.18 270.71L297.41 270.65L297.63 270.59L297.86 270.53L298.08 270.45L298.3 270.37L298.52 270.27L298.73 270.17L298.94 270.06L299.14 269.95L299.34 269.83L299.54 269.7L299.73 269.56L299.91 269.41L300.09 269.26L300.27 269.11L300.44 268.94L300.6 268.77L300.75 268.6L300.9 268.41L301.04 268.22L301.18 268.03L301.3 267.83L301.42 267.62L301.53 267.41L301.63 267.2L301.72 266.98L301.81 266.75L301.88 266.52L304.77 256.8L305.39 256.73L306 256.64L306.6 256.52L307.19 256.39L307.78 256.23L308.35 256.05L308.92 255.85L309.47 255.63L310.02 255.4L310.55 255.14L311.08 254.86L311.59 254.57L312.08 254.26L312.57 253.93L313.04 253.58L313.5 253.22L313.95 252.85L314.38 252.45L314.8 252.04L315.2 251.62L315.58 251.18L315.95 250.73L316.31 250.27L316.64 249.79L316.96 249.3L317.26 248.8L317.55 248.28L317.81 247.76L318.06 247.22L318.29 246.67L318.5 246.12L318.68 245.55L318.85 244.98L319 244.39L319.12 243.8L319.22 243.2L319.31 242.59L319.36 241.98L319.4 241.36L319.41 240.73L319.41 240.57L319.41 240.4L319.4 240.24L319.4 240.08L319.39 239.91L319.38 239.75L319.37 239.59L319.35 239.42L319.34 239.26L319.32 239.1L319.3 238.93L319.28 238.77L319.26 238.61L319.24 238.45L319.21 238.28L319.19 238.12L319.16 237.96L319.13 237.8L319.09 237.64L319.06 237.47L319.02 237.31L318.99 237.15L318.95 236.99L318.9 236.83L318.86 236.67L318.82 236.51L318.77 236.35L318.72 236.19L318.67 236.03L318.62 235.87L318.57 235.71L318.51 235.55L318.46 235.39L318.4 235.23L318.34 235.07L318.27 234.92L318.21 234.76L318.14 234.6L318.08 234.44L318.01 234.29L373.88 161.84L383.6 186.17L382.23 186.93L380.88 187.72L379.56 188.54L378.27 189.39L377 190.28L375.77 191.19L374.56 192.14L373.39 193.11L372.24 194.11L371.12 195.15L370.04 196.2L368.98 197.29L367.96 198.4L366.96 199.54L366 200.7L365.08 201.89L364.18 203.1L363.32 204.33L362.49 205.58L361.7 206.86L360.94 208.16L360.22 209.47L359.53 210.81L358.88 212.16L358.26 213.53L357.68 214.93L357.14 216.33L356.64 217.75L356.17 219.19L355.75 220.65L355.36 222.11L355.01 223.59L354.7 225.09L354.43 226.59L354.2 228.11L354.01 229.64L353.86 231.18L353.75 232.72L353.69 234.28L353.67 235.84L353.72 238.16L353.86 240.45L354.09 242.72L354.41 244.96L354.81 247.17L355.31 249.35L355.88 251.5L356.54 253.62L357.28 255.69L358.1 257.73L358.99 259.73L359.96 261.69L361 263.6L362.11 265.47L363.3 267.29L364.54 269.06L365.86 270.79L367.24 272.45L368.68 274.07L370.17 275.63L371.73 277.13L373.35 278.57L375.02 279.94L376.74 281.26L378.51 282.51L380.33 283.69L382.2 284.8L384.11 285.84L386.07 286.81L388.07 287.7L390.11 288.52L392.19 289.26L394.3 289.92L396.45 290.49L398.63 290.99L400.84 291.39L403.08 291.71L405.35 291.94L407.64 292.08L409.96 292.13L412.28 292.08L414.57 291.94L416.84 291.71L419.08 291.39L421.29 290.99L423.47 290.49L425.62 289.92L427.73 289.26L429.81 288.52L431.85 287.7L433.85 286.81L435.81 285.84L437.72 284.8L439.59 283.69L441.41 282.51L443.18 281.26L444.91 279.95L446.57 278.57L448.19 277.13L449.75 275.63L451.25 274.07L452.69 272.46L454.06 270.79L455.38 269.07L456.63 267.3L457.81 265.48L458.92 263.61L459.96 261.7L460.93 259.74L461.83 257.74L462.64 255.7L463.38 253.62L464.04 251.51L464.62 249.36L465.11 247.18L465.52 244.97L465.84 242.73L466.07 240.46L466.21 238.17L466.26 235.85L466.21 233.54L466.07 231.24L465.84 228.98L465.52 226.73L465.11 224.52L464.62 222.34L464.04 220.19L463.38 218.08L462.64 216L461.83 213.96L460.93 211.96L459.97 210.01L458.92 208.09L457.81 206.22L456.63 204.4L455.38 202.63L454.07 200.91L452.69 199.24L451.25 197.63L449.75 196.07L448.19 194.57L446.58 193.13L444.91 191.75L443.19 190.44L441.42 189.19L439.6 188.01L437.73 186.9L435.81 185.86L433.86 184.89L431.86 183.99L429.82 183.18L427.74 182.44L425.63 181.78L423.48 181.2L421.3 180.71L419.09 180.3L416.85 179.98L414.58 179.75L412.29 179.61L409.97 179.56L409.59 179.56L409.2 179.57L408.82 179.58L408.44 179.58L408.06 179.6L407.68 179.61L407.29 179.63L406.91 179.65L406.53 179.67L406.15 179.69L405.77 179.72L405.39 179.75L405.01 179.79L404.62 179.82L404.24 179.86L403.86 179.9L403.48 179.94L403.1 179.99L402.72 180.04L402.35 180.09L401.97 180.14L401.59 180.2L401.21 180.26L400.83 180.32L400.45 180.38L400.08 180.45L399.7 180.52L399.32 180.59L398.95 180.66L398.57 180.74L398.19 180.82L397.82 180.9L397.44 180.99L397.07 181.07L396.7 181.16L396.32 181.26L395.95 181.35L395.58 181.45L395.21 181.55L394.83 181.65L378.43 140.58L400.33 131.5L400.56 131.4L400.78 131.29L400.99 131.18L401.2 131.05L401.41 130.92L401.6 130.78L401.79 130.64L401.97 130.48L402.15 130.32L402.32 130.16L402.48 129.99L402.64 129.81L402.78 129.63L402.92 129.44L403.05 129.25L403.18 129.05L403.3 128.85L403.41 128.64L403.51 128.44L403.6 128.22L403.68 128.01L403.76 127.79L403.83 127.56L403.89 127.34L403.94 127.11L403.98 126.88L404.02 126.65L404.04 126.42L404.06 126.18L404.06 125.95L404.06 125.71L404.05 125.47L404.02 125.24L403.99 125L403.95 124.76L403.9 124.52L403.84 124.29L403.77 124.05L403.69 123.82L403.6 123.59L403.5 123.36L403.39 123.15L403.28 122.94L403.15 122.73L403.02 122.53L402.88 122.34L402.74 122.15L402.58 121.97L402.42 121.8L402.25 121.63L402.08 121.47L401.9 121.32L401.72 121.17L401.53 121.03L401.33 120.9L401.13 120.78L400.93 120.66L400.72 120.55L400.51 120.45L400.3 120.35L400.08 120.27L399.85 120.19L399.63 120.12L399.4 120.06L399.18 120.01L398.94 119.96L398.71 119.93L398.48 119.9L398.24 119.88L398.01 119.88L397.77 119.88L397.54 119.89Z" id="a3JA2maTK"></path><path d="M303.62 218.21C304.2 216.26 304.52 215.17 304.59 214.95C305.52 211.84 309 209.94 312.12 210.88C313.66 211.34 314.94 212.38 315.71 213.8C316.17 214.65 316.42 215.57 316.44 216.5C319.21 212.91 333.08 194.93 358.04 162.58L307.47 182.93L295.22 191.62L303.62 218.21Z" id="h2G91lCtu4"></path></defs><g><g><g><use xlink:href="#i44LfOha" opacity="1" fill="#ff0000" fill-opacity="1"></use><g><use xlink:href="#i44LfOha" opacity="1" fill-opacity="0" stroke="#000000" stroke-width="1" stroke-opacity="0"></use></g></g><g><use xlink:href="#e60OXgieVp" opacity="1" fill="#ff0000" fill-opacity="1"></use><g><use xlink:href="#e60OXgieVp" opacity="1" fill-opacity="0" stroke="#000000" stroke-width="1" stroke-opacity="0"></use></g></g><g><use xlink:href="#gGOu7lzN1" opacity="1" fill="#ff0000" fill-opacity="1"></use><g><use xlink:href="#gGOu7lzN1" opacity="1" fill-opacity="0" stroke="#000000" stroke-width="1" stroke-opacity="0"></use></g></g><g><use xlink:href="#brKgMk8uD" opacity="1" fill="#ff0000" fill-opacity="1"></use><g><use xlink:href="#brKgMk8uD" opacity="1" fill-opacity="0" stroke="#000000" stroke-width="1" stroke-opacity="0"></use></g></g><g><use xlink:href="#b376E5xYk" opacity="1" fill="#ff0000" fill-opacity="1"></use><g><use xlink:href="#b376E5xYk" opacity="1" fill-opacity="0" stroke="#000000" stroke-width="1" stroke-opacity="0"></use></g></g><g><use xlink:href="#a3JA2maTK" opacity="1" fill="#ff0000" fill-opacity="1"></use><g><use xlink:href="#a3JA2maTK" opacity="1" fill-opacity="0" stroke="#000000" stroke-width="1" stroke-opacity="0"></use></g></g><g><use xlink:href="#h2G91lCtu4" opacity="1" fill="#ff0000" fill-opacity="1"></use><g><use xlink:href="#h2G91lCtu4" opacity="1" fill-opacity="0" stroke="#000000" stroke-width="1" stroke-opacity="0"></use></g></g></g></g></svg>